<?xml version="1.0" standalone="no"?><!DOCTYPE svg PUBLIC "-//W3C//DTD SVG 1.1//EN" "http://www.w3.org/Graphics/SVG/1.1/DTD/svg11.dtd"><svg t="1749003581821" class="icon" viewBox="0 0 1024 1024" version="1.1" xmlns="http://www.w3.org/2000/svg" p-id="3074" xmlns:xlink="http://www.w3.org/1999/xlink" width="200" height="200"><path d="M87.04 785.066667a17.083733 17.083733 0 0 1-17.066667-17.066667V256a17.066667 17.066667 0 1 1 31.0272-9.8304l160.6656 228.096c17.2032-48.196267 45.294933-91.9552 83.831467-130.491733C415.044267 274.210133 500.360533 238.933333 599.04 238.933333c30.702933 0 60.689067 3.584 89.122133 10.666667l0.631467 0.1536c61.184 14.8992 116.3264 46.5408 163.822933 94.020267 47.5136 47.5136 79.445333 102.7072 94.9248 164.0448 0.682667 2.747733 0.682667 5.614933 0 8.3456-15.4624 61.320533-47.4112 116.5312-94.9248 164.061866-47.4112 47.394133-102.485333 79.291733-163.669333 94.839467A401.0496 401.0496 0 0 1 599.04 785.066667c-98.679467 0-183.978667-35.259733-253.525333-104.840534-38.468267-38.485333-66.542933-81.800533-83.746134-129.1264L100.9664 777.864533A17.066667 17.066667 0 0 1 87.04 785.066667z m198.5024-272.298667c13.789867 53.0944 42.069333 101.307733 84.087467 143.325867C432.554667 719.035733 509.730133 750.933333 599.04 750.933333a371.370667 371.370667 0 0 0 68.266667-6.1952V529.066667h-153.6a17.066667 17.066667 0 1 1 0-34.133334h153.6V279.8592a339.131733 339.131733 0 0 0-68.266667-6.792533c-89.2928 0-166.485333 31.914667-229.410133 94.839466-42.001067 42.001067-70.280533 90.7264-84.087467 144.861867zM701.44 288.768v447.1296c46.728533-15.445333 89.463467-42.257067 127.0272-79.803733 42.018133-42.0352 70.5536-90.504533 84.8896-144.093867-14.336-53.623467-42.871467-102.075733-84.8896-144.093867-37.512533-37.512533-80.145067-64.0512-127.0272-79.138133z m-597.333333 21.0944V714.410667l142.9504-201.591467L104.106667 309.8624z" p-id="3075" fill="#13227a"></path></svg>